<svg width="24" height="24" viewBox="0 0 24 24" fill="none" xmlns="http://www.w3.org/2000/svg">
<path d="M4.98339 4.54098H18.5573L16.6248 12.7538C16.3739 13.8201 15.4224 14.5738 14.3269 14.5738H9.45628C8.38513 14.5738 7.44826 13.8526 7.17417 12.8172L4.98339 4.54098ZM4.98339 4.54098L4.09814 1H1.44238" stroke="white" stroke-width="1.5" stroke-linecap="round" stroke-linejoin="round"/>
<path d="M8.14829 17.8195C8.14829 18.1 7.92086 18.3275 7.6403 18.3275C7.35974 18.3275 7.13231 18.1 7.13231 17.8195C7.13231 17.5389 7.35974 17.3115 7.6403 17.3115C7.92086 17.3115 8.14829 17.5389 8.14829 17.8195Z" fill="white" stroke="white" stroke-width="1.3447"/>
<path d="M15.903 18.9998C16.5549 18.9998 17.0833 18.4714 17.0833 17.8195C17.0833 17.1676 16.5549 16.6392 15.903 16.6392C15.2511 16.6392 14.7227 17.1676 14.7227 17.8195C14.7227 18.4714 15.2511 18.9998 15.903 18.9998Z" fill="white"/>
</svg>
